<svg xmlns="http://www.w3.org/2000/svg" width="132.248" height="105.675" viewBox="0 0 132.248 105.675">
  <symbol id="Bonobo">
    <g id="Bonobo" transform="translate(-634.791 -311.727)">
      <g id="Laptop" transform="translate(701.286 353.842)">
        <g id="Pfad_28" data-name="Pfad 28" transform="translate(0 50.27)">
          <path d="M 49.05039978027344 -1.880547642707825 L 0.8377470374107361 -1.880547642707825 L 1.822880864143372 -3.707117080688477 L 49.05039978027344 -5.187454223632812 L 49.05039978027344 -1.880547642707825 Z" stroke="none"/>
          <path d="M 48.55039978027344 -4.671530723571777 L 2.126296997070312 -3.216376543045044 L 1.675506591796875 -2.380547523498535 L 48.55039978027344 -2.380547523498535 L 48.55039978027344 -4.671530723571777 M 49.55039978027344 -5.703367710113525 L 49.55039978027344 -1.380547523498535 L -3.814697265625e-06 -1.380547523498535 L 1.519466400146484 -4.197847366333008 L 49.55039978027344 -5.703367710113525 Z" stroke="none" fill="#000"/>
        </g>
        <g id="Pfad_29" data-name="Pfad 29" transform="matrix(-0.326, 0.946, -0.946, -0.326, 65.753, 1.425)">
          <path d="M 49.41401672363281 3.858542919158936 L 1.945811867713928 2.246048450469971 L 0.8876644372940063 0.5000026822090149 L 49.09556198120117 0.5000026822090149 L 49.41401672363281 3.858542919158936 Z" stroke="none"/>
          <path d="M 1.775318145751953 1.00000262260437 L 2.233177185058594 1.755524158477783 L 48.86256790161133 3.339523792266846 L 48.6407356262207 1.00000262260437 L 1.775318145751953 1.00000262260437 M -3.814697265625e-06 2.86102294921875e-06 L 49.55039596557617 2.86102294921875e-06 L 49.96547698974609 4.377562522888184 L 1.658416748046875 2.736572742462158 L -3.814697265625e-06 2.86102294921875e-06 Z" stroke="none" fill="#000"/>
        </g>
        <g id="Ellipse_1" data-name="Ellipse 1" transform="translate(47.073 45.586)" stroke="#fff" stroke-width="1">
          <circle cx="0.826" cy="0.826" r="0.826" stroke="none"/>
          <circle cx="0.826" cy="0.826" r="0.326" fill="none"/>
        </g>
      </g>
      <path id="Affe" d="M44.4,104.675c-5.419,0-9.819-.037-13.079-.109-.133.007-.274.01-.42.01-.3,0-.639-.015-1-.044-.856-.016-1.724-.018-2.565-.02h0c-1.945,0-3.782-.009-5.56-.173a16.115,16.115,0,0,1-4.958-1.134,21.237,21.237,0,0,1-7.733-5.759A29.275,29.275,0,0,1,4.562,90.14a38.049,38.049,0,0,1-2.12-6.275c-.391-1.614-.525-2.654-.527-2.665l.074.03a94.5,94.5,0,0,1-1.7-12.9A89.763,89.763,0,0,1,.172,55.619c.371-4.447.7-8.07,1.09-11.3A77.879,77.879,0,0,1,2.7,35.787,46.3,46.3,0,0,1,8.8,21.444a14.462,14.462,0,0,1,12.907-7.17c.388,0,.782.013,1.174.037,1-1.133,3.649-4.078,6.7-6.947,3.76-3.542,6.844-5.789,9.167-6.679A10.335,10.335,0,0,1,42.459,0a11.968,11.968,0,0,1,3.277.475A14.85,14.85,0,0,1,48.38,1.522a14.165,14.165,0,0,1,2.409,1.522,19.9,19.9,0,0,1,1.725,1.1,18.741,18.741,0,0,1,3.293,2.915c.191.221.373.43.549.632l.011.013a15.232,15.232,0,0,1,2.785,3.9l.028.061a3.524,3.524,0,0,1,.374,1.391c.015.209-.213,1.659-.336,2.439v.009c-.03.194-.054.346-.065.416a7.265,7.265,0,0,1-.837,1.161v0c-.138.169-.267.329-.355.448a3.59,3.59,0,0,1-1.317,1.216l.762,2.215a28.874,28.874,0,0,1,.709,3.467,22.616,22.616,0,0,1,.245,3.211,11.561,11.561,0,0,1-.4,3.2c-.056.189-.11.381-.163.566a8.392,8.392,0,0,1-1.661,3.64,5.907,5.907,0,0,1-2.176,1.314,6.553,6.553,0,0,1-1.164.3,15.932,15.932,0,0,1-2.645.223,11.216,11.216,0,0,1-2.331-.223,10.274,10.274,0,0,1-1.794-.575v.595l.1-.393a.041.041,0,0,1,0,.01c.058.224.356,1.417.569,2.87a20.8,20.8,0,0,1,.231,2.591,9.074,9.074,0,0,1-.237,2.461,7.709,7.709,0,0,0-.16.97A3.9,3.9,0,0,1,46,47.078a2.686,2.686,0,0,1-.265.271c1.238-.225,2.427-.472,3.577-.711.457-.095.888-.184,1.306-.269,5.508-1.116,8.5-1.684,8.531-1.689.007,0,.67-.221,1.667-.437a18.307,18.307,0,0,1,3.748-.437,7.929,7.929,0,0,1,3.953.874,11.586,11.586,0,0,1,3.744,4.278,33.036,33.036,0,0,1,2.074,4.267,18.074,18.074,0,0,1,1.9,5.974,38.621,38.621,0,0,1,.643,11.182,6.568,6.568,0,0,1-.918,3.271,3.684,3.684,0,0,1-1.659,1.154,8.865,8.865,0,0,0-1.155.593l-.153.1c-1.752,1.108-2.717,1.718-4.093,1.718a2.9,2.9,0,0,1-1.925-.887c-.26-.223-.466-.4-.648-.4l-3.6,5.662c-.011.01-1.133.975-2.5,1.937A18.854,18.854,0,0,1,58.1,84.857a4.435,4.435,0,0,1-1.857.605,1.319,1.319,0,0,1-.2-.014c-1.312-.2-1.191-2.577-1-3.975l-.121-.16a25.727,25.727,0,0,1-1.154,3.367c-2.078,4.958-6.117,10.069-9.139,13.484l-.12.178,6.207-.482a49.7,49.7,0,0,1,6.517-.508,16.116,16.116,0,0,1,4.073.423,5.726,5.726,0,0,1,2.835,1.651,5.23,5.23,0,0,1,1.17,2.26,7.262,7.262,0,0,1,.107,2.856l-.36-.1c-.012.063-.021.1-.021.1h-.046C63.185,104.566,53.731,104.675,44.4,104.675ZM66.35,75.783l-.39.294.373-.151h0ZM45.041,39.716h0l-.027.766.2-.766h-.178Z" transform="translate(635.302 312.227)" stroke="#000" stroke-width="1"/>
    </g>
  </symbol>
</svg>
